# xmcd
#
# Track frame offsets:
#	150
#	11376
#	30254
#	44805
#	58515
#	72707
#	87310
#	94314
#	99821
#	106313
#	123617
#	137618
#	154587
#	169403
#
# Disc length: 2486 seconds
# Revision: 0
# Processed by: cddbd v1.5.2PL0 Copyright (c) Steve Scherf et al.
# Submitted via: dBpowerAMP V12.0
#
DISCID=b809b40e
DTITLE=Byrd and Street - This Much Is True
DYEAR=2016
DGENRE=Americana
TTITLE0=Eighty Dollar Guitar
TTITLE1=I've Got It All
TTITLE2=Workin' Man
TTITLE3=Money's Good
TTITLE4=Bless My Soul
TTITLE5=Shenandoah
TTITLE6=A Man With A Cardboard Sign
TTITLE7=Waves
TTITLE8=The Good Old Days
TTITLE9=Mighty Long Road
TTITLE10='Til The Night Goes Away
TTITLE11=Ain't No Two Ways About It
TTITLE12=Watch The River Flow
TTITLE13=In Your Heart
EXTD=
EXTT0=
EXTT1=
EXTT2=
EXTT3=
EXTT4=
EXTT5=
EXTT6=
EXTT7=
EXTT8=
EXTT9=
EXTT10=
EXTT11=
EXTT12=
EXTT13=
PLAYORDER=
